<mxfile host="app.diagrams.net" modified="2023-08-03T06:19:52.478Z" agent="Mozilla/5.0 (Windows NT 10.0; Win64; x64) AppleWebKit/537.36 (KHTML, like Gecko) Chrome/115.0.0.0 Safari/537.36 Edg/115.0.1901.188" etag="iOf4QlJQWpoQoTHK8_pK" version="21.6.2" type="github">
  <diagram name="Page-1" id="5f0bae14-7c28-e335-631c-24af17079c00">
    <mxGraphModel dx="2086" dy="1941" grid="1" gridSize="10" guides="1" tooltips="1" connect="1" arrows="1" fold="1" page="1" pageScale="1" pageWidth="1100" pageHeight="850" background="none" math="0" shadow="0">
      <root>
        <mxCell id="0" />
        <mxCell id="1" parent="0" />
        <mxCell id="QFB8S7wR_qHZRgBEiR2Z-17" value="" style="rounded=0;whiteSpace=wrap;html=1;" vertex="1" parent="1">
          <mxGeometry x="400" y="450" width="570" height="370" as="geometry" />
        </mxCell>
        <mxCell id="QFB8S7wR_qHZRgBEiR2Z-7" value="" style="rounded=0;whiteSpace=wrap;html=1;" vertex="1" parent="1">
          <mxGeometry x="30" y="13" width="1000" height="397" as="geometry" />
        </mxCell>
        <mxCell id="39150e848f15840c-1" value="Database" style="verticalAlign=top;align=left;spacingTop=8;spacingLeft=2;spacingRight=12;shape=cube;size=10;direction=south;fontStyle=4;html=1;rounded=0;shadow=0;comic=0;labelBackgroundColor=none;strokeWidth=1;fontFamily=Verdana;fontSize=12" parent="1" vertex="1">
          <mxGeometry x="120" y="70" width="330" height="220" as="geometry" />
        </mxCell>
        <mxCell id="QFB8S7wR_qHZRgBEiR2Z-3" style="edgeStyle=orthogonalEdgeStyle;rounded=0;orthogonalLoop=1;jettySize=auto;html=1;entryX=0.514;entryY=0.003;entryDx=0;entryDy=0;entryPerimeter=0;" edge="1" parent="1" source="39150e848f15840c-2" target="39150e848f15840c-1">
          <mxGeometry relative="1" as="geometry" />
        </mxCell>
        <mxCell id="QFB8S7wR_qHZRgBEiR2Z-14" style="edgeStyle=orthogonalEdgeStyle;rounded=0;orthogonalLoop=1;jettySize=auto;html=1;entryX=0.5;entryY=1;entryDx=0;entryDy=0;" edge="1" parent="1" source="39150e848f15840c-2" target="QFB8S7wR_qHZRgBEiR2Z-13">
          <mxGeometry relative="1" as="geometry">
            <Array as="points">
              <mxPoint x="695" y="-20" />
              <mxPoint x="1120" y="-20" />
            </Array>
          </mxGeometry>
        </mxCell>
        <mxCell id="39150e848f15840c-2" value="Carto API" style="verticalAlign=top;align=left;spacingTop=8;spacingLeft=2;spacingRight=12;shape=cube;size=10;direction=south;fontStyle=4;html=1;rounded=0;shadow=0;comic=0;labelBackgroundColor=none;strokeWidth=1;fontFamily=Verdana;fontSize=12" parent="1" vertex="1">
          <mxGeometry x="530" y="73" width="330" height="220" as="geometry" />
        </mxCell>
        <mxCell id="QFB8S7wR_qHZRgBEiR2Z-4" style="edgeStyle=orthogonalEdgeStyle;rounded=0;orthogonalLoop=1;jettySize=auto;html=1;" edge="1" parent="1" source="39150e848f15840c-3" target="39150e848f15840c-2">
          <mxGeometry relative="1" as="geometry" />
        </mxCell>
        <mxCell id="QFB8S7wR_qHZRgBEiR2Z-16" style="edgeStyle=orthogonalEdgeStyle;rounded=0;orthogonalLoop=1;jettySize=auto;html=1;" edge="1" parent="1" source="39150e848f15840c-3" target="QFB8S7wR_qHZRgBEiR2Z-13">
          <mxGeometry relative="1" as="geometry">
            <Array as="points">
              <mxPoint x="1540" y="-30" />
              <mxPoint x="1120" y="-30" />
            </Array>
          </mxGeometry>
        </mxCell>
        <mxCell id="39150e848f15840c-3" value="Analytics" style="verticalAlign=top;align=left;spacingTop=8;spacingLeft=2;spacingRight=12;shape=cube;size=10;direction=south;fontStyle=4;html=1;rounded=0;shadow=0;comic=0;labelBackgroundColor=none;strokeWidth=1;fontFamily=Verdana;fontSize=12" parent="1" vertex="1">
          <mxGeometry x="1380" y="47" width="320" height="270" as="geometry" />
        </mxCell>
        <mxCell id="QFB8S7wR_qHZRgBEiR2Z-1" value="" style="image;aspect=fixed;perimeter=ellipsePerimeter;html=1;align=center;shadow=0;dashed=0;spacingTop=3;image=img/lib/active_directory/databases.svg;" vertex="1" parent="1">
          <mxGeometry x="210" y="140.8" width="80" height="78.4" as="geometry" />
        </mxCell>
        <mxCell id="QFB8S7wR_qHZRgBEiR2Z-2" value="" style="sketch=0;outlineConnect=0;fontColor=#232F3E;gradientColor=none;fillColor=#4D27AA;strokeColor=none;dashed=0;verticalLabelPosition=bottom;verticalAlign=top;align=center;html=1;fontSize=12;fontStyle=0;aspect=fixed;pointerEvents=1;shape=mxgraph.aws4.data_exchange_for_apis;" vertex="1" parent="1">
          <mxGeometry x="650" y="141" width="78" height="78" as="geometry" />
        </mxCell>
        <mxCell id="QFB8S7wR_qHZRgBEiR2Z-6" style="edgeStyle=orthogonalEdgeStyle;rounded=0;orthogonalLoop=1;jettySize=auto;html=1;entryX=0;entryY=0;entryDx=220;entryDy=170;entryPerimeter=0;" edge="1" parent="1" source="QFB8S7wR_qHZRgBEiR2Z-5" target="39150e848f15840c-2">
          <mxGeometry relative="1" as="geometry" />
        </mxCell>
        <mxCell id="QFB8S7wR_qHZRgBEiR2Z-19" style="edgeStyle=orthogonalEdgeStyle;rounded=0;orthogonalLoop=1;jettySize=auto;html=1;entryX=0.5;entryY=0;entryDx=0;entryDy=0;" edge="1" parent="1" source="QFB8S7wR_qHZRgBEiR2Z-5" target="QFB8S7wR_qHZRgBEiR2Z-18">
          <mxGeometry relative="1" as="geometry" />
        </mxCell>
        <mxCell id="QFB8S7wR_qHZRgBEiR2Z-5" value="Data Sync Service" style="verticalAlign=top;align=left;spacingTop=8;spacingLeft=2;spacingRight=12;shape=cube;size=10;direction=south;fontStyle=4;html=1;rounded=0;shadow=0;comic=0;labelBackgroundColor=none;strokeWidth=1;fontFamily=Verdana;fontSize=12" vertex="1" parent="1">
          <mxGeometry x="530" y="480" width="320" height="130" as="geometry" />
        </mxCell>
        <mxCell id="QFB8S7wR_qHZRgBEiR2Z-13" value="Model" style="rounded=0;whiteSpace=wrap;html=1;" vertex="1" parent="1">
          <mxGeometry x="1060" y="-200" width="120" height="60" as="geometry" />
        </mxCell>
        <mxCell id="QFB8S7wR_qHZRgBEiR2Z-18" value="" style="image;aspect=fixed;perimeter=ellipsePerimeter;html=1;align=center;shadow=0;dashed=0;spacingTop=3;image=img/lib/active_directory/databases.svg;" vertex="1" parent="1">
          <mxGeometry x="600" y="690" width="80" height="78.4" as="geometry" />
        </mxCell>
      </root>
    </mxGraphModel>
  </diagram>
</mxfile>
